# xmcd
#
# Track frame offsets:
#       150
#       9407
#       29171
#       41734
#       53134
#       64618
#       81956
#       86897
#       104448
#       114897
#       122462
#       127749
#       140127
#       150860
#       158838
#       169532
#       181495
#       193023
#
# Disc length: 2746 seconds
#
# Revision: 0
# Processed by: cddbd v1.5.2PL0 Copyright (c) Steve Scherf et al.
# Submitted via: WaveLab 4.01
#
DISCID=e70ab812
DTITLE=Hna.Maria Inez Errázuriz - En Belen
DYEAR=2010
DGENRE=Catholic
TTITLE0=Virgen de Adviento
TTITLE1=Ven Señor mi Dios (adviento)
TTITLE2=Buscando un lugar (adviento)
TTITLE3=Doña María
TTITLE4=La alegría de Navidad
TTITLE5=Ha nacido un Rey
TTITLE6=Ofrenda de Belén
TTITLE7=En Belén, la más pequeña
TTITLE8=Nace el Rey de Belén
TTITLE9=A la Sagrada Familia
TTITLE10=Santo cantan todos en Belén
TTITLE11=Al Dios anunciado
TTITLE12=Navidad en Primavera
TTITLE13=Alabemos al Señor
TTITLE14=En Belén
TTITLE15=A María en Belén
TTITLE16=Vamos pastorcitos
TTITLE17=Tu Santuario es nuestro Belén
EXTD=
EXTT0=
EXTT1=
EXTT2=
EXTT3=
EXTT4=
EXTT5=
EXTT6=
EXTT7=
EXTT8=
EXTT9=
EXTT10=
EXTT11=
EXTT12=
EXTT13=
EXTT14=
EXTT15=
EXTT16=
EXTT17=
PLAYORDER=
